<?xml version="1.0" encoding="utf-8"?>
<!-- Generator: Adobe Illustrator 24.1.1, SVG Export Plug-In . SVG Version: 6.00 Build 0)  -->
<svg version="1.1" xmlns="http://www.w3.org/2000/svg" xmlns:xlink="http://www.w3.org/1999/xlink" x="0px" y="0px"
	 viewBox="0 0 204.7 92.4" style="enable-background:new 0 0 204.7 92.4;" xml:space="preserve">
<style type="text/css">
	.st0{display:none;}
	.st1{opacity:0.63;}
	.st2{fill:#FFFFFF;}
	.st3{fill:none;stroke:#000000;stroke-width:1.5;stroke-miterlimit:10;}
	.st4{fill:none;stroke:#000000;stroke-width:1.5;stroke-miterlimit:10;stroke-dasharray:5.9418,5.9418;}
	.st5{fill:none;stroke:#000000;stroke-width:1.5;stroke-miterlimit:10;stroke-dasharray:6.4246,6.4246;}
	.st6{fill:#6600FF;stroke:#330099;stroke-width:0.5;stroke-miterlimit:10;}
	.st7{fill:#00CC00;stroke:#006600;stroke-width:0.5;stroke-miterlimit:10;}
	.st8{fill:#FF6600;stroke:#C95405;stroke-width:0.75;stroke-miterlimit:10;}
	.st9{fill:#C95405;}
	.st10{fill:#00CC00;stroke:#006600;stroke-width:0.25;stroke-miterlimit:10;}
	.st11{fill:#006600;stroke:#00CC00;stroke-width:0.25;stroke-miterlimit:10;}
	.st12{fill:#006600;stroke:#00CC00;stroke-width:0.5;stroke-miterlimit:10;}
	.st13{fill:#006600;}
	.st14{fill:#FF9900;stroke:#FF6600;stroke-width:0.5;stroke-miterlimit:10;}
	.st15{fill:#00CC00;stroke:#FF6600;stroke-width:0.75;stroke-miterlimit:10;}
	.st16{fill:#FF6600;}
	.st17{fill:#078E0D;stroke:#026002;stroke-width:0.25;stroke-miterlimit:10;}
	.st18{fill:#026002;}
	.st19{fill:#009900;}
	.st20{fill:#FF2424;stroke:#990000;stroke-width:0.5;stroke-miterlimit:10;}
	.st21{fill:#105E23;}
	.st22{fill:#33CC00;}
	.st23{font-family:'Gabriola';}
	.st24{font-size:30px;}
</style>
<g id="Capa_1" class="st0">
	
		<image style="display:inline;overflow:visible;" width="1920" height="1080" xlink:href="../../Downloads/20121231_181044.jpg"  transform="matrix(0.1447 0 0 0.1447 -35.6 -43.32)">
	</image>
</g>
<g id="Capa_2">
	<g class="st1">
		<rect x="1.4" y="1.4" class="st2" width="202.1" height="89.5"/>
		<g>
			<polyline class="st3" points="203.5,4.4 203.5,1.4 200.5,1.4 			"/>
			<line class="st4" x1="194.6" y1="1.4" x2="7.4" y2="1.4"/>
			<polyline class="st3" points="4.4,1.4 1.4,1.4 1.4,4.4 			"/>
			<line class="st5" x1="1.4" y1="10.9" x2="1.4" y2="84.7"/>
			<polyline class="st3" points="1.4,88 1.4,91 4.4,91 			"/>
			<line class="st4" x1="10.4" y1="91" x2="197.5" y2="91"/>
			<polyline class="st3" points="200.5,91 203.5,91 203.5,88 			"/>
			<line class="st5" x1="203.5" y1="81.5" x2="203.5" y2="7.7"/>
		</g>
	</g>
	<g>
		<path class="st6" d="M43.1,74.6c-3.5,4-9.2,6.4-14.2,5.7c-15.3-2-19.6-31.4-19.2-38.7c0.1-1.4,0.2-4.5,2.3-7.2
			c0.5-0.7,2.1-2.7,5-3.8c0.8-0.3,4.6-1.5,8,0.6c1.9,1.2,2.9,2.9,3.7,4.5c1.3,2.5,0.7,3,2,5.7c2,3.9,8.1,11.4,10.4,12.8
			c3.8,2.4,5.7,8.6,5.7,9.6C47.3,69.7,43.9,73.7,43.1,74.6z"/>
		<path class="st7" d="M33.1,36.7c0.9-1.3-3.5-3.6-5.3-9.3c-0.3-0.9-0.9-3.1-2.7-5c-0.6-0.6-1.2-1.1-1.9-1c-1,0.2-1.4,1.7-1.6,1.6
			c-0.2-0.1,0.1-2.8,1.7-5.9c2-3.9,4.9-6.3,4.3-6.9c-0.3-0.4-1.2,0.3-2.1-0.3c-0.8-0.5-0.7-1.4-1.2-1.6c-1-0.3-3.1,2.4-4.3,5.2
			c-0.9,2.1-1.6,4.1-1.7,4.4c-0.8,2.8-1,4.9-1.7,4.9c-0.5,0-0.5-1-1.4-1.3c-1.3-0.5-3,1-3.5,1.4c-1.7,1.4-2.3,3.3-2.6,4.4
			c-0.8,3.4-1.2,6.4-1.4,8.5c-0.3,3.3-0.1,4.9,0.4,6.4c0.4,1.5,1.1,2.7,1.6,3.5c0.7-1.1,1.6-2.7,2-4.9c0.3-1.7,0-2.1,0.4-3.4
			c0.8-3.1,3.5-5.7,4.7-5.3c0.6,0.2,0.8,1.4,1.2,3.6c0.3,1.7,0.3,2.6,0.4,3.6c0.4,3.3,1.8,6.4,2.3,6.3c0.6-0.1-0.4-5.7,0.4-5.9
			c0.8-0.2,2.3,4.8,2.9,4.7c0.5-0.1-0.2-4.1-0.6-6.8c-0.9-5.1-1.6-7.8-1.1-8c0.4-0.2,1.2,1.7,3.8,4.4c2.6,2.6,4.1,3,5.2,3
			C31.9,37.1,32.7,37.2,33.1,36.7z"/>
	</g>
	<g>
		<path class="st8" d="M51.6,46.9c-5-3-10.5-2.1-11.2-2c-2.9,0.5-5,1.8-6.2,2.7c-4.4,3.3-5.8,8-7.1,12.8c-1.1,3.8-2.3,8.3-0.8,13.6
			c0.5,1.8,1.1,3.9,3,5.9c3.2,3.4,7.8,3.6,10.2,3.7c4.2,0.2,7.6-0.9,9.3-1.5c4.7-1.7,4.9-3.2,7.7-3.3c3.4-0.2,3.7,1.9,8.8,3.2
			c1.7,0.4,6.4,1.5,11.3-0.5c0.4-0.2,2.3-1,4.4-2.7c4.4-3.7,5.8-8.4,6.5-10.7c0.6-2.1,2.2-8.1-0.2-14.8c-1.1-3-2.7-7.5-7-9
			c-3.3-1.2-7.5-0.4-10.2,1.5c-1.5,1-2.1,2.1-4.6,3.5c-1.3,0.7-2.6,1.4-4.3,1.6c-2.1,0.2-3.7-0.4-4.8-0.8C54.1,49,53.4,48,51.6,46.9
			z"/>
		<g>
			<path class="st9" d="M36.1,83.6c-0.5-0.8-1.1-2-1.4-3.6c-0.6-2.9-0.1-5.7,0.3-5.7c0.4,0,0.1,3.4,2.3,6.6c0.9,1.3,2,2.2,2.9,2.7"
				/>
			<path class="st9" d="M46,83c-0.5-0.4-1.4-1.2-1.8-2.5c-0.5-1.7,0.1-3.7,0.5-3.7c0.4,0,0.5,1.6,1.9,3.4c0.7,0.9,1.6,1.5,2.2,1.9"
				/>
			<path class="st9" d="M60.3,79.8c0.3-0.4,0.6-1,0.7-1.9c0.2-2-1.1-3.7-1.3-3.6c-0.2,0.1,0.3,1.2-0.2,2.5c-0.3,0.9-0.8,1.5-1.3,2"
				/>
			<path class="st9" d="M72.5,82.4c0.2-0.7,0.4-1.9,0.2-3.2c-0.4-2.1-1.9-3.8-2.3-3.6c-0.3,0.2,0.7,1.9,0.3,4
				c-0.3,1.3-1,2.2-1.6,2.9"/>
			<path class="st9" d="M81.8,78.3c0.3-0.4,0.6-1,0.7-1.9c0.2-2-1.1-3.7-1.3-3.6c-0.3,0.1,0,1.1-0.2,2.5c-0.3,2.2-1.4,3.9-2.5,5.1"
				/>
			<path class="st9" d="M87.7,67.6c0.8-2.3,1.9-6.4,0.6-10.9c-1.4-4.7-4.7-7.8-4.9-7.7c-0.2,0.2,2.5,3.4,3.4,8.6
				c0.5,2.8,0.3,5.2,0.1,6.9"/>
			<path class="st9" d="M52.6,80.6c-0.3-0.2-0.8-0.8-1-1.7c-0.3-1.6,0.8-3.1,1.1-3c0.2,0.1-0.3,1,0.2,2c0.3,0.7,1,1.1,1.6,1.3"/>
			<path class="st9" d="M41.3,44.8c-2.2,1.8-6.4,5.8-8,12.1c-1.6,6-0.1,11.6,0.4,11.6c0.6,0-0.7-7.9,3.6-14.8
				c2.7-4.3,6.7-6.9,10.1-8.5"/>
			<path class="st9" d="M50.6,46.3c-2.8,4.3-3.1,8-3.2,9.9c-0.1,6.7,3.8,11.5,4.4,11.7c0,0,0,0,0,0c0.4-0.1-2.8-5.9-1.7-11.8
				c0.4-2.3,1.3-3.5,1.6-3.9c1.5-1.9,3.5-2.6,4.4-2.8"/>
			<path class="st9" d="M65.6,49.1c0.8,1.2,3.3,5.4,2.3,10.7c-0.8,4.1-3.4,7.4-3.7,7.3c-0.1-0.1,0.1-0.6,0.6-2.6
				c1.1-4.8,0.9-6.3,0.8-7.1c0-0.2-0.2-1.1-0.7-2.2c-1-2.3-2.7-3.8-3.6-4.4"/>
			<path class="st9" d="M75.4,43.7c0.9,0.6,4.1,3.1,5,7.5c0.8,3.9-0.6,7.6-0.9,7.6c-0.1,0-0.1-0.2-0.4-2.5c-0.3-2.1-0.4-3.2-0.5-3.4
				c-0.5-2.2-1.7-3.7-2.2-4.2c-2-2.4-4.6-3.2-5.7-3.4"/>
			<path class="st9" d="M75.6,52.9c0.5-0.4,2.2,0.5,3.2,1.7c2,2.4,1.3,5.9,1.2,6.5c-0.6,2.7-2.4,5.2-3.1,5c-0.4-0.1-0.3-1.5-0.3-2.3
				c0.2-2.6,1.2-2.9,1-4.5c-0.1-1.3-0.9-1.3-1.7-3.8C75.6,54.3,75.2,53.2,75.6,52.9z"/>
		</g>
		<path class="st10" d="M70.8,45.3c-0.2-0.4-1.8-0.2-3,0.2c-1.4,0.5-1.7,1.2-2.7,1.3c-1.2,0-2.1-1.2-2.3-1.4
			c-1.2-1.7-0.4-3.7-0.4-3.9c0.5-1.3,1.8-2.7,3.2-2.6c1.9,0.1,3,2.8,3.9,2.4c0.5-0.2,0.2-1.1,1-2.3c0.8-1.1,1.7-1,1.8-1.6
			c0.2-1.1-2.5-2.6-4.3-3.2c-1.3-0.5-3.4-1.2-5.9-0.6c-0.8,0.2-2.4,0.5-3.8,1.9c-1.2,1.2-1.6,2.6-2,3.9c-0.6,2.2-0.2,2.8-1,4.5
			c-0.4,0.7-0.8,1.6-1.8,2.1c-1.6,0.8-3.3-0.2-3.4,0.2c-0.2,0.4,2.1,1.9,4.8,3.2c1.2,0.5,2.5,1.1,3.9,1.4
			C64.8,51.7,71.2,46.2,70.8,45.3z"/>
		<path class="st11" d="M59.8,41.1c0.5,0.1,0.8-0.9,2.5-2.3c1.1-0.9,1.6-1.3,2.3-1.3c1.8-0.1,3.2,2.2,3.7,1.9
			c0.3-0.2-0.2-0.9,0.2-1.9c0.3-0.9,1-1,0.9-1.3c-0.1-0.5-1.4-0.6-4.4-1.2c-2.3-0.4-2.5-0.5-3.2-0.3c-1.8,0.5-2.6,2.4-2.6,2.5
			C58.7,38.9,59.1,41,59.8,41.1z"/>
		<path class="st12" d="M68.4,46.4c-0.1-0.1-1.4,1.1-3.6,1.3c-0.7,0.1-1.2,0.1-1.8-0.1c-2.2-0.8-2.4-4.2-3.4-4.2
			c-0.8,0-0.7,2.5-2.5,3.6c-1.7,1-3.8,0-3.9,0.4c-0.1,0.4,1.7,1.5,3.5,2.2c1,0.3,2.7,0.9,4.8,0.7C65.8,49.9,68.5,46.6,68.4,46.4z"/>
	</g>
	<g>
		<path class="st10" d="M46.1,66.5c1.3-0.2,2.3-0.5,3-0.8c0.4-0.1,0.8-0.3,0.9-0.7c0.2-0.6-0.5-1.2-0.4-1.3c0.2-0.2,1.5,1,1.8,0.8
			c0.3-0.3-0.9-2.1-0.6-2.4c0.3-0.3,2,1.5,2.2,1.3c0.3-0.3-1.5-3-1.3-3.1c0.2-0.1,2,2.5,2.7,2.2c0.7-0.3-0.2-3.4,0.1-3.4
			c0.2-0.1,1,3.1,1.6,3c0.5-0.1,0.4-2.9,0.7-3c0.3,0,0.5,2.5,1.2,2.6c0.7,0.1,1.4-2.8,1.6-2.7c0.3,0.1-0.3,3-0.1,3.1
			c0.3,0.1,1.5-4.6,1.9-4.5c0.4,0.1-0.1,3.7,0.5,3.8c0.5,0.1,1.6-2.8,1.8-2.7c0.2,0.1-1.1,3.6-0.6,3.9c0.3,0.2,1.2-0.9,1.7-1.6
			c0.8-1.2,1-2.1,1.2-2.1c0.4,0.1-0.5,3.3,1,4.7c0.7,0.6,1.6,0.5,1.6,0.9c0,0.7-3.2,1.1-3.2,1.9c0,0.6,2,0.9,1.9,1.6
			c0,0.2-0.2,0.5-0.4,0.5c-0.8,0.3-1.8-1.4-2.1-1.3c-0.2,0.1,0.8,1.9,0.5,2.1c-0.3,0.2-1.4-1.2-1.9-0.9c-0.6,0.3,0.3,2.7-0.1,2.8
			c-0.4,0.2-1.7-2.9-2.2-2.8c-0.5,0.2,0.3,3.7,0,3.8c-0.3,0.1-1.1-2.6-1.3-2.5c-0.2,0.1,0.5,3.3,0.3,3.4C59.9,73,59,70,58.5,70.1
			c-0.5,0.1-0.3,3.5-0.5,3.6c-0.3,0-0.7-3.4-1-3.4c-0.3,0-0.4,2.4-0.6,2.4c-0.3,0-0.4-3-0.6-3c-0.2,0-0.3,3.3-0.7,3.3
			c-0.3,0-0.3-2.6-1.4-2.9c-0.5-0.1-1.1,0.4-2.4,1.5c-0.7,0.6-1.3,1.2-1.7,1.6"/>
		<path class="st13" d="M53.8,66c0.4-0.1,0.7-0.1,1.2-0.3c0.1,0,0.3-0.1,0.4-0.3c0.1-0.2-0.2-0.5-0.1-0.5c0.1-0.1,0.6,0.4,0.7,0.3
			c0.1-0.1-0.4-0.9-0.2-1c0.1-0.1,0.8,0.6,0.9,0.5c0.1-0.1-0.6-1.2-0.5-1.3c0.1-0.1,0.8,1,1.1,0.9c0.3-0.1-0.1-1.4,0-1.4
			c0.1,0,0.4,1.2,0.6,1.2c0.2,0,0.2-1.2,0.3-1.2c0.1,0,0.2,1,0.5,1c0.3,0,0.5-1.1,0.7-1.1c0.1,0-0.1,1.2,0,1.2
			c0.1,0,0.6-1.9,0.8-1.8c0.2,0,0,1.5,0.2,1.5c0.2,0,0.7-1.1,0.7-1.1c0.1,0-0.5,1.5-0.2,1.6c0.1,0.1,0.5-0.3,0.7-0.6
			c0.3-0.5,0.4-0.9,0.5-0.8c0.2,0-0.2,1.3,0.4,1.9c0.3,0.2,0.6,0.2,0.6,0.4c0,0.3-1.3,0.4-1.3,0.8c0,0.2,0.8,0.4,0.8,0.6
			c0,0.1-0.1,0.2-0.2,0.2c-0.3,0.1-0.7-0.6-0.8-0.5c-0.1,0.1,0.3,0.8,0.2,0.8c-0.1,0.1-0.6-0.5-0.8-0.4c-0.2,0.1,0.1,1.1,0,1.1
			c-0.2,0.1-0.7-1.2-0.9-1.1c-0.2,0.1,0.1,1.5,0,1.5c-0.1,0-0.5-1-0.5-1c-0.1,0,0.2,1.3,0.1,1.4c-0.1,0-0.5-1.2-0.7-1.1
			c-0.2,0-0.1,1.4-0.2,1.4c-0.1,0-0.3-1.4-0.4-1.4c-0.1,0-0.1,1-0.2,1c-0.1,0-0.2-1.2-0.2-1.2c-0.1,0-0.1,1.3-0.3,1.3
			c-0.1,0-0.1-1.1-0.6-1.2c-0.2-0.1-0.5,0.2-1,0.6c-0.5,0.4-0.5,0.5-0.7,0.7c-0.8,0.7-3.1,0-3.2-0.9C51.9,67.1,52.9,66.1,53.8,66z"
			/>
		<path class="st10" d="M55.5,66c0.2,0,0.3-0.1,0.6-0.2c0.1,0,0.2-0.1,0.2-0.1c0-0.1-0.1-0.3-0.1-0.3c0,0,0.3,0.2,0.4,0.2
			c0.1-0.1-0.2-0.4-0.1-0.5c0.1-0.1,0.4,0.3,0.5,0.3c0.1-0.1-0.3-0.6-0.3-0.7c0,0,0.4,0.5,0.6,0.5c0.1-0.1,0-0.7,0-0.7
			c0,0,0.2,0.6,0.3,0.6c0.1,0,0.1-0.6,0.2-0.6c0.1,0,0.1,0.5,0.2,0.5c0.1,0,0.3-0.6,0.3-0.6c0.1,0-0.1,0.6,0,0.6
			c0.1,0,0.3-1,0.4-0.9c0.1,0,0,0.8,0.1,0.8c0.1,0,0.3-0.6,0.4-0.6c0,0-0.2,0.8-0.1,0.8c0.1,0,0.2-0.2,0.4-0.3
			c0.2-0.2,0.2-0.4,0.2-0.4c0.1,0-0.1,0.7,0.2,1c0.1,0.1,0.3,0.1,0.3,0.2c0,0.1-0.7,0.2-0.7,0.4c0,0.1,0.4,0.2,0.4,0.3
			c0,0,0,0.1-0.1,0.1c-0.2,0.1-0.4-0.3-0.4-0.3c0,0,0.2,0.4,0.1,0.4c-0.1,0-0.3-0.2-0.4-0.2c-0.1,0.1,0.1,0.6,0,0.6
			c-0.1,0-0.4-0.6-0.5-0.6c-0.1,0,0.1,0.8,0,0.8c-0.1,0-0.2-0.5-0.3-0.5c0,0,0.1,0.7,0.1,0.7c-0.1,0-0.2-0.6-0.3-0.6
			c-0.1,0-0.1,0.7-0.1,0.7c-0.1,0-0.1-0.7-0.2-0.7c-0.1,0-0.1,0.5-0.1,0.5c-0.1,0-0.1-0.6-0.1-0.6c0,0-0.1,0.7-0.1,0.7
			c-0.1,0-0.1-0.6-0.3-0.6c-0.1,0-0.2,0.1-0.5,0.3c-0.2,0.2-0.3,0.3-0.4,0.3c-0.4,0.3-1.6,0-1.7-0.5C54.5,66.6,55.1,66.1,55.5,66z"
			/>
		<path class="st14" d="M47.9,69.2l1.6,3.6c0.8,2.4-0.3,4.4-1.9,5.7c-1.2,1-2.8,1.5-4.4,1.7l-16.6,1.7l-19.7,2
			c-3.3,0.3-3.7-0.8-0.8-2.5l16.1-9.6l12.5-7.4c0.7-0.2,1.7-0.5,2.9-0.7c0.5,0,2.1-0.2,3.8,0.1c3.2,0.7,5.2,3,6,4L47.9,69.2z"/>
		<path class="st15" d="M32.9,72.9"/>
		<path class="st15" d="M32.2,72"/>
		<path class="st16" d="M37,63.8c-0.6,3.4-1.7,5.9-2.6,7.4c-1,1.7-2.6,3.8-2.9,3.7c-0.2-0.1,0.2-1,0.4-1.7c0.6-1.7,1.2-4.2,1.3-7.9"
			/>
		<path class="st16" d="M24.2,70.6c0.2,2.1-0.2,3.5-0.5,4.3c-0.3,0.8-0.9,1.8-1,1.8c-0.1,0,0-0.6,0.1-0.8c0.2-0.9,0.4-2.3,0.2-4.4"
			/>
		<path class="st16" d="M40.7,80.5c-1.3-2.2-2.8-3.1-3.8-3.6c-0.7-0.3-1.9-0.8-2-0.7c-0.1,0.1,0.4,0.4,0.6,0.6
			c0.8,0.6,1.8,1.7,2.7,4"/>
		<path class="st16" d="M26,82c0.4-1.6,1-2.6,1.5-3.2c0.5-0.7,1.2-1.4,1.4-1.3c0.1,0.1-0.3,0.6-0.5,1.3c-0.3,0.7-0.6,1.7-0.6,3.1"/>
		<path class="st16" d="M13.6,77c-0.4,1-0.8,1.6-1.1,2c-0.4,0.5-0.9,1-1,1c0,0,0.1-0.2,0.2-0.4c0.2-0.4,0.3-0.9,0.3-1.6"/>
		<path class="st16" d="M16.5,82.9c-0.4-0.6-1-1.5-1.3-2.7c-0.2-0.9-0.3-1.9-0.1-2c0.2,0,0.4,1.4,1.4,2.7c0.7,0.9,1.5,1.4,2.2,1.8"
			/>
	</g>
	<g>
		<path class="st17" d="M79.1,50.5c-1.4,0.5-2.3,1.7-3.7,5c-3,7.1-3.9,12.7-4.2,14.6c-0.9,6.6-0.1,7.9,0.4,8.4
			c0.8,0.9,1.3,0.8,6.3,2.6c4.8,1.8,5.1,2.2,6.8,2.3c2,0.1,2.1-0.3,5.5-0.3c2.8,0,3.1,0.3,4.2,0c1.6-0.5,1.7-1.4,4.3-3.6
			c2.6-2.2,3.1-1.8,4.4-3.4c1.5-1.7,1.2-2.5,2.5-5c2.3-4.4,4.1-3.8,5.2-6.9c1-2.9,0.6-6.5-1.3-8.7c-0.3-0.3-0.4-0.4-2.9-2.2
			c-5.4-3.9-5.1-3.8-5.5-4c-2.6-1.3-2.7-0.3-8.6-1.9c-1.9-0.5-2.6-0.8-3.6-0.5c-2.2,0.6-2.2,2.6-4.4,3.5
			C82.5,51.4,81.3,49.7,79.1,50.5z"/>
		<path class="st18" d="M90,52.7c0.2-0.4,1.1-0.4,3-0.6c1.9-0.1,2.5,0,2.8,0.1c0.9,0.3,0.8,0.5,1.7,0.9c0.4,0.2,0.7,0.2,3.1,0.3
			c1.7,0.1,1.8,0.1,2.2,0.2c0.7,0.4,1.5,1.2,1.6,2.1c0.1,0.9-0.5,1.2-0.2,1.8c0.3,0.8,1.3,0.7,1.4,1.3c0.1,0.5-0.4,1-1,1.2
			c-0.5,0.1-0.7-0.3-1.2-0.1c-0.5,0.1-0.6,0.6-0.9,0.9c-0.8,0.8-2.5,0.5-3.3,0.3c-1.3-0.3-2.3-1-4.2-2.3c-1.5-1-2.2-1.6-3-2.5
			C91.4,55.8,89.4,53.7,90,52.7z"/>
		<path class="st19" d="M95.1,54.8c0.1,0.5,0.5,0.8,2.6,2c2.6,1.5,3.2,1.7,3.5,1.5c0.3-0.3-0.2-0.9,0.1-1.9c0.2-0.9,1-1.5,2-2.1
			c3.3-2.2,5-3.3,5.8-3.5c2-0.5,2.6,0.1,3.7-0.7c1.1-0.8,1.8-2.4,1.3-3.7c-0.7-2.3-4.6-2.4-5-2.5c-2.2,0-3.6,0.9-6.5,2.7
			c-2,1.3-3.5,2.9-6.4,6C95.7,53.1,94.9,54,95.1,54.8z"/>
		<path class="st18" d="M111.2,49.7c-1.3,0.1-2.2-2.3-1.9-2.6c0.2-0.1,0.6,0.4,1.8,0.7c1,0.2,1.5,0,1.6,0.3
			C112.9,48.5,112.1,49.7,111.2,49.7z"/>
	</g>
	<g>
		<path class="st20" d="M116.2,61.2c-1.4-0.5-1.4-0.7-2.5-1c-0.4-0.1-2.3-0.6-4.2-0.2c-3.4,0.6-5.5,3.3-6.1,4.1
			c-2.5,3.5-2,7.5-1.7,8.9c1.4,6.9,8.6,9.7,9.5,10c6.9,2.5,12.9-1,13.8-1.6c4.6-2.8,6.4-7.1,7-8.5c0.3-0.7,1.3-3.3,1.2-6.8
			c-0.1-2.1-0.1-3.7-1.4-5.1c-1-1.1-2.6-1.9-4.1-1.8c-0.4,0-0.6,0.1-3.6,1.4c-2.5,1.1-2.5,1.1-2.8,1.2
			C119.3,62.2,117.6,61.7,116.2,61.2z"/>
		<path class="st21" d="M111.3,68.6c0,0-0.1-2,1.1-3.6c1.1-1.3,2.5-1.5,2.4-2.2c0-0.2-0.3-0.4-1.5-1.1c-1.6-0.9-1.5-0.9-1.7-1
			c-2-0.9-4.5,0-4.5,0.1c0,0,2.8-1.4,6.6-1.1c1.4,0.1,3,0.5,4-0.4c0.2-0.2,0.2-0.2,0.8-1.1c0.5-0.7,0.9-1.1,2-2.4
			c2-2.3,1.9-2.2,2-2.3c1.1-1.1,2.8-2.4,3.3-2.1c0.3,0.2,0.1,0.8,0.4,1c0.4,0.2,1-0.4,1.3-0.2c0.4,0.2,0.4,1.5-0.2,1.8
			c-0.4,0.3-0.9-0.2-1.6-0.3c-2.2-0.2-4,3.6-4.3,4.2c-0.3,0.7-0.9,1.9-0.4,2.4c0.3,0.3,0.7,0.3,1.2,0.3c1.1,0,1.6-0.4,2.6-0.8
			c1.4-0.5,2.8-0.7,2.8-0.5c0,0.1-0.8,0.3-1.8,1c-0.7,0.5-1.8,1.2-1.7,2c0.1,0.9,1.5,1.4,1.4,1.5c-0.1,0.1-1.1-0.4-1.4-0.1
			c-0.3,0.4,1.6,2.5,1.5,2.6c-0.1,0-1-1-2.4-2c-0.5-0.3-1.5-1-1.8-0.7c-0.3,0.3,0.6,1.2,0.3,2.5c-0.1,0.7-0.5,1.3-0.7,1.2
			c-0.1,0,0.1-0.7,0-1.6c-0.1-1-0.6-1.8-0.7-1.8c-0.1,0,0.1,0.5,0.2,1.4c0.1,0.7,0.1,1.5,0,2.4c-0.2,1-0.6,1.7-0.7,1.7
			c-0.1,0,0.5-1.2,0.1-2.4c-0.3-0.8-0.9-1.6-1.5-1.6c-0.3,0-0.5,0.4-0.8,0.3c-0.2-0.1-0.1-0.3-0.3-0.7c-0.1-0.3-0.5-0.7-0.9-0.7
			c-0.6-0.1-0.8,0.7-1.7,0.8c-0.5,0.1-0.6-0.1-0.9,0c-0.5,0.3-0.4,0.9-0.9,1.3c-0.4,0.3-0.6,0.1-1,0.4
			C111.4,67.3,111.3,68.6,111.3,68.6z"/>
	</g>
	<text transform="matrix(1.5 0 0 1.4 42.6107 31.5945)" class="st22 st23 st24">O</text>
	<text transform="matrix(1 0 0 1 66.473 31.5945)" class="st23 st24">rganic </text>
	<text transform="matrix(1.5 0 0 1.25 130.3553 31.5945)" class="st22 st23 st24">H</text>
	<text transform="matrix(1 0 0 1 155.2606 31.5945)" class="st23 st24">ealth</text>
</g>
</svg>
